<svg width="519" height="399" viewBox="0 0 519 399" fill="none" xmlns="http://www.w3.org/2000/svg">
<path d="M79.9213 125.455C79.9213 122.404 79.3905 119.684 78.3291 117.295C77.2676 114.907 75.5649 112.762 73.2209 110.86C70.8768 108.959 67.803 107.212 63.9995 105.619C60.2402 104.027 55.6185 102.479 50.1343 100.976C45.2251 99.6488 40.8024 98.2335 36.8662 96.7298C32.93 95.1819 29.5687 93.4128 26.7824 91.4226C24.0403 89.4323 21.9395 87.0662 20.4801 84.3241C19.0206 81.5378 18.2908 78.1987 18.2908 74.3067C18.2908 70.6358 19.0869 67.3409 20.6791 64.4219C22.3155 61.5029 24.5711 59.0262 27.4458 56.9918C30.3648 54.9573 33.7703 53.4094 37.6623 52.3479C41.5543 51.2423 45.778 50.6894 50.3333 50.6894C56.6136 50.6894 62.1641 51.8835 66.9848 54.2718C71.8056 56.6601 75.587 59.9992 78.3291 64.2892C81.1154 68.535 82.5086 73.5106 82.5086 79.2159H78.9262C78.9262 74.4394 77.732 70.1714 75.3438 66.4121C72.9555 62.6528 69.6164 59.6896 65.3263 57.5225C61.0805 55.3554 56.0829 54.2718 50.3333 54.2718C44.2742 54.2718 39.1218 55.2006 34.876 57.0581C30.6302 58.9157 27.4016 61.3703 25.1902 64.4219C22.9789 67.4294 21.8732 70.6801 21.8732 74.174C21.8732 76.7392 22.3155 79.1274 23.2 81.3388C24.1288 83.5501 25.6767 85.6067 27.8439 87.5085C30.011 89.366 32.9963 91.1351 36.7999 92.8157C40.6034 94.4521 45.3799 96.0222 51.1294 97.5259C55.906 98.7643 60.2623 100.157 64.1985 101.705C68.179 103.253 71.6066 105.089 74.4813 107.212C77.4003 109.335 79.6338 111.878 81.1817 114.841C82.7739 117.76 83.57 121.254 83.57 125.323C83.57 129.259 82.7076 132.753 80.9827 135.804C79.3021 138.856 76.9581 141.443 73.9506 143.566C70.9432 145.645 67.4492 147.237 63.4688 148.343C59.5326 149.404 55.3089 149.935 50.7977 149.935C46.6846 149.935 42.5273 149.449 38.3257 148.476C34.1241 147.503 30.2764 145.932 26.7824 143.765C23.2885 141.554 20.4801 138.613 18.3572 134.942C16.2343 131.271 15.1728 126.738 15.1728 121.342H18.7552C18.7552 126.163 19.7503 130.188 21.7405 133.416C23.7307 136.645 26.318 139.21 29.5024 141.112C32.731 142.969 36.2028 144.318 39.9179 145.158C43.6772 145.955 47.3038 146.353 50.7977 146.353C56.4588 146.353 61.4786 145.468 65.8571 143.699C70.2355 141.93 73.6631 139.475 76.1398 136.335C78.6608 133.195 79.9213 129.568 79.9213 125.455ZM91.1036 114.111V111.325C91.1036 106.062 91.8555 101.241 93.3592 96.8625C94.9072 92.484 97.0522 88.7026 99.7943 85.5183C102.581 82.3339 105.898 79.8793 109.745 78.1544C113.593 76.3854 117.839 75.5008 122.483 75.5008C127.171 75.5008 131.439 76.3854 135.287 78.1544C139.134 79.8793 142.451 82.3339 145.238 85.5183C148.024 88.7026 150.169 92.484 151.673 96.8625C153.176 101.241 153.928 106.062 153.928 111.325V114.111C153.928 119.374 153.176 124.195 151.673 128.573C150.169 132.952 148.024 136.733 145.238 139.918C142.496 143.102 139.201 145.579 135.353 147.348C131.505 149.073 127.259 149.935 122.615 149.935C117.927 149.935 113.659 149.073 109.812 147.348C105.964 145.579 102.647 143.102 99.8606 139.918C97.0743 136.733 94.9072 132.952 93.3592 128.573C91.8555 124.195 91.1036 119.374 91.1036 114.111ZM94.686 111.325V114.111C94.686 118.401 95.3052 122.492 96.5436 126.384C97.8262 130.232 99.6616 133.659 102.05 136.667C104.438 139.674 107.357 142.04 110.807 143.765C114.257 145.49 118.193 146.353 122.615 146.353C126.994 146.353 130.886 145.49 134.291 143.765C137.741 142.04 140.66 139.674 143.048 136.667C145.437 133.659 147.25 130.232 148.488 126.384C149.727 122.492 150.346 118.401 150.346 114.111V111.325C150.346 107.123 149.727 103.099 148.488 99.2508C147.25 95.403 145.415 91.9754 142.982 88.968C140.594 85.9163 137.675 83.5059 134.225 81.7368C130.775 79.9678 126.861 79.0832 122.483 79.0832C118.104 79.0832 114.19 79.9678 110.74 81.7368C107.335 83.5059 104.416 85.9163 101.984 88.968C99.5952 91.9754 97.7819 95.403 96.5436 99.2508C95.3052 103.099 94.686 107.123 94.686 111.325ZM176.322 148.608H172.74V66.6112C172.74 62.0116 173.492 58.1417 174.995 55.0016C176.499 51.8172 178.644 49.4068 181.43 47.7704C184.261 46.134 187.622 45.3158 191.514 45.3158C192.885 45.3158 194.3 45.4043 195.76 45.5812C197.219 45.7139 198.635 46.0013 200.006 46.4436L199.475 49.8933C198.237 49.5395 197.065 49.2963 195.959 49.1636C194.853 48.9867 193.394 48.8982 191.581 48.8982C188.44 48.8982 185.72 49.6059 183.421 51.0211C181.165 52.3922 179.418 54.4045 178.18 57.0581C176.941 59.6675 176.322 62.8519 176.322 66.6112V148.608ZM195.296 76.8276V80.4764H160.268V76.8276H195.296ZM230.427 76.8276V80.4764H197.19V76.8276H230.427ZM210.458 57.4562H214.107V131.426C214.107 135.628 214.594 138.812 215.567 140.979C216.584 143.102 217.911 144.539 219.547 145.291C221.228 145.999 223.019 146.353 224.921 146.353C226.292 146.353 227.508 146.308 228.569 146.22C229.631 146.087 230.781 145.932 232.019 145.756L232.616 149.139C231.643 149.449 230.383 149.648 228.835 149.736C227.287 149.869 226.048 149.935 225.12 149.935C222.068 149.935 219.437 149.404 217.225 148.343C215.058 147.237 213.377 145.335 212.183 142.638C211.033 139.94 210.458 136.203 210.458 131.426V57.4562Z" fill="black"/>
<path d="M241.217 48.4615H280.629C288.333 48.4615 295.027 49.6079 300.713 51.9006C306.399 54.1934 310.778 57.5866 313.851 62.0804C316.969 66.5741 318.528 72.1226 318.528 78.7256C318.528 84.4575 317.634 89.2493 315.845 93.1011C314.057 96.9529 311.558 100.14 308.348 102.662C305.184 105.138 301.493 107.178 297.274 108.783L289.364 113.254H256.28L256.143 94.6143H280.629C283.701 94.6143 286.246 94.064 288.264 92.9635C290.281 91.863 291.795 90.304 292.803 88.2863C293.858 86.2229 294.385 83.7697 294.385 80.9267C294.385 78.0378 293.858 75.5617 292.803 73.4982C291.749 71.4347 290.19 69.8528 288.126 68.7522C286.109 67.6517 283.61 67.1015 280.629 67.1015H265.359V148.608H241.217V48.4615ZM296.036 148.608L273.888 104.313L299.475 104.175L321.898 147.576V148.608H296.036ZM363.825 149.984C357.772 149.984 352.361 149.044 347.592 147.164C342.824 145.238 338.788 142.601 335.487 139.254C332.231 135.906 329.732 132.055 327.99 127.698C326.293 123.342 325.445 118.734 325.445 113.873V111.26C325.445 105.803 326.201 100.759 327.714 96.1275C329.228 91.4503 331.475 87.3693 334.455 83.8843C337.436 80.3993 341.173 77.6939 345.667 75.768C350.16 73.7963 355.388 72.8104 361.349 72.8104C366.622 72.8104 371.345 73.6587 375.518 75.3553C379.691 77.0519 383.222 79.4822 386.11 82.6462C389.045 85.8102 391.269 89.6391 392.782 94.1328C394.341 98.6266 395.121 103.671 395.121 109.265V118.688H334.318V104.175H372.492V102.387C372.537 99.9105 372.102 97.8012 371.185 96.0587C370.313 94.3162 369.03 92.9865 367.333 92.0694C365.636 91.1523 363.573 90.6937 361.143 90.6937C358.621 90.6937 356.534 91.244 354.883 92.3445C353.278 93.445 352.017 94.9582 351.1 96.8841C350.229 98.7641 349.61 100.942 349.243 103.418C348.876 105.895 348.693 108.508 348.693 111.26V113.873C348.693 116.625 349.06 119.124 349.794 121.371C350.573 123.617 351.674 125.543 353.095 127.148C354.562 128.707 356.305 129.922 358.322 130.794C360.386 131.665 362.725 132.101 365.338 132.101C368.502 132.101 371.62 131.504 374.693 130.312C377.765 129.12 380.402 127.148 382.603 124.397L393.126 136.915C391.613 139.07 389.458 141.157 386.661 143.174C383.909 145.192 380.608 146.843 376.756 148.127C372.904 149.365 368.594 149.984 363.825 149.984ZM443.1 177.222V89.7996L446.333 74.186H466.418V177.222H443.1ZM397.429 112.085V110.641C397.429 105 398.048 99.8647 399.286 95.2333C400.524 90.5562 402.359 86.5668 404.789 83.2653C407.219 79.9179 410.223 77.35 413.799 75.5617C417.422 73.7275 421.595 72.8104 426.318 72.8104C430.766 72.8104 434.571 73.7733 437.735 75.6992C440.945 77.6251 443.628 80.3306 445.783 83.8155C447.938 87.2546 449.681 91.2898 451.01 95.9212C452.386 100.552 453.464 105.551 454.243 110.916V112.635C453.464 117.679 452.386 122.448 451.01 126.942C449.681 131.436 447.938 135.425 445.783 138.91C443.628 142.349 440.945 145.054 437.735 147.026C434.526 148.998 430.674 149.984 426.18 149.984C421.503 149.984 417.376 149.044 413.799 147.164C410.223 145.238 407.219 142.578 404.789 139.185C402.359 135.746 400.524 131.734 399.286 127.148C398.048 122.517 397.429 117.496 397.429 112.085ZM420.609 110.641V112.085C420.609 114.882 420.792 117.496 421.159 119.926C421.526 122.311 422.145 124.42 423.016 126.254C423.933 128.088 425.125 129.533 426.593 130.587C428.06 131.596 429.894 132.101 432.095 132.101C435.443 132.101 438.079 131.367 440.005 129.899C441.931 128.432 443.284 126.392 444.063 123.778C444.843 121.118 445.164 118.023 445.026 114.492V109.059C445.072 106.032 444.889 103.373 444.476 101.08C444.063 98.7871 443.353 96.8841 442.344 95.3709C441.381 93.8118 440.074 92.6425 438.423 91.863C436.773 91.0835 434.709 90.6937 432.233 90.6937C430.078 90.6937 428.244 91.1981 426.73 92.2069C425.263 93.1699 424.071 94.5455 423.154 96.3338C422.282 98.1222 421.64 100.231 421.228 102.662C420.815 105.092 420.609 107.752 420.609 110.641Z" fill="#A6C8E8"/>
<path d="M79.9213 224.847C79.9213 221.795 79.3905 219.075 78.3291 216.687C77.2676 214.299 75.5649 212.154 73.2209 210.252C70.8768 208.35 67.803 206.603 63.9995 205.011C60.2402 203.419 55.6185 201.871 50.1343 200.367C45.2251 199.041 40.8024 197.625 36.8662 196.122C32.93 194.574 29.5687 192.805 26.7824 190.814C24.0403 188.824 21.9395 186.458 20.4801 183.716C19.0206 180.93 18.2908 177.59 18.2908 173.698C18.2908 170.028 19.0869 166.733 20.6791 163.814C22.3155 160.895 24.5711 158.418 27.4458 156.384C30.3648 154.349 33.7703 152.801 37.6623 151.74C41.5543 150.634 45.778 150.081 50.3333 150.081C56.6136 150.081 62.1641 151.275 66.9848 153.664C71.8056 156.052 75.587 159.391 78.3291 163.681C81.1154 167.927 82.5086 172.902 82.5086 178.608H78.9262C78.9262 173.831 77.732 169.563 75.3438 165.804C72.9555 162.045 69.6164 159.081 65.3263 156.914C61.0805 154.747 56.0829 153.664 50.3333 153.664C44.2742 153.664 39.1218 154.592 34.876 156.45C30.6302 158.307 27.4016 160.762 25.1902 163.814C22.9789 166.821 21.8732 170.072 21.8732 173.566C21.8732 176.131 22.3155 178.519 23.2 180.731C24.1288 182.942 25.6767 184.999 27.8439 186.9C30.011 188.758 32.9963 190.527 36.7999 192.208C40.6034 193.844 45.3799 195.414 51.1294 196.918C55.906 198.156 60.2623 199.549 64.1985 201.097C68.179 202.645 71.6066 204.481 74.4813 206.603C77.4003 208.726 79.6338 211.269 81.1817 214.233C82.7739 217.152 83.57 220.646 83.57 224.714C83.57 228.651 82.7076 232.145 80.9827 235.196C79.3021 238.248 76.9581 240.835 73.9506 242.958C70.9432 245.037 67.4492 246.629 63.4688 247.735C59.5326 248.796 55.3089 249.327 50.7977 249.327C46.6846 249.327 42.5273 248.84 38.3257 247.867C34.1241 246.894 30.2764 245.324 26.7824 243.157C23.2885 240.946 20.4801 238.005 18.3572 234.334C16.2343 230.663 15.1728 226.13 15.1728 220.734H18.7552C18.7552 225.555 19.7503 229.579 21.7405 232.808C23.7307 236.037 26.318 238.602 29.5024 240.504C32.731 242.361 36.2028 243.71 39.9179 244.55C43.6772 245.346 47.3038 245.744 50.7977 245.744C56.4588 245.744 61.4786 244.86 65.8571 243.091C70.2355 241.322 73.6631 238.867 76.1398 235.727C78.6608 232.587 79.9213 228.96 79.9213 224.847ZM91.1036 213.503V210.717C91.1036 205.454 91.8555 200.633 93.3592 196.254C94.9072 191.876 97.0522 188.094 99.7943 184.91C102.581 181.726 105.898 179.271 109.745 177.546C113.593 175.777 117.839 174.893 122.483 174.893C127.171 174.893 131.439 175.777 135.287 177.546C139.134 179.271 142.451 181.726 145.238 184.91C148.024 188.094 150.169 191.876 151.673 196.254C153.176 200.633 153.928 205.454 153.928 210.717V213.503C153.928 218.766 153.176 223.587 151.673 227.965C150.169 232.344 148.024 236.125 145.238 239.309C142.496 242.494 139.201 244.97 135.353 246.74C131.505 248.464 127.259 249.327 122.615 249.327C117.927 249.327 113.659 248.464 109.812 246.74C105.964 244.97 102.647 242.494 99.8606 239.309C97.0743 236.125 94.9072 232.344 93.3592 227.965C91.8555 223.587 91.1036 218.766 91.1036 213.503ZM94.686 210.717V213.503C94.686 217.793 95.3052 221.884 96.5436 225.776C97.8262 229.624 99.6616 233.051 102.05 236.059C104.438 239.066 107.357 241.432 110.807 243.157C114.257 244.882 118.193 245.744 122.615 245.744C126.994 245.744 130.886 244.882 134.291 243.157C137.741 241.432 140.66 239.066 143.048 236.059C145.437 233.051 147.25 229.624 148.488 225.776C149.727 221.884 150.346 217.793 150.346 213.503V210.717C150.346 206.515 149.727 202.49 148.488 198.643C147.25 194.795 145.415 191.367 142.982 188.36C140.594 185.308 137.675 182.898 134.225 181.129C130.775 179.36 126.861 178.475 122.483 178.475C118.104 178.475 114.19 179.36 110.74 181.129C107.335 182.898 104.416 185.308 101.984 188.36C99.5952 191.367 97.7819 194.795 96.5436 198.643C95.3052 202.49 94.686 206.515 94.686 210.717ZM176.322 248H172.74V166.003C172.74 161.403 173.492 157.533 174.995 154.393C176.499 151.209 178.644 148.799 181.43 147.162C184.261 145.526 187.622 144.708 191.514 144.708C192.885 144.708 194.3 144.796 195.76 144.973C197.219 145.106 198.635 145.393 200.006 145.835L199.475 149.285C198.237 148.931 197.065 148.688 195.959 148.555C194.853 148.378 193.394 148.29 191.581 148.29C188.44 148.29 185.72 148.998 183.421 150.413C181.165 151.784 179.418 153.796 178.18 156.45C176.941 159.059 176.322 162.244 176.322 166.003V248ZM195.296 176.219V179.868H160.268V176.219H195.296ZM230.427 176.219V179.868H197.19V176.219H230.427ZM210.458 156.848H214.107V230.818C214.107 235.019 214.594 238.204 215.567 240.371C216.584 242.494 217.911 243.931 219.547 244.683C221.228 245.391 223.019 245.744 224.921 245.744C226.292 245.744 227.508 245.7 228.569 245.612C229.631 245.479 230.781 245.324 232.019 245.147L232.616 248.531C231.643 248.84 230.383 249.039 228.835 249.128C227.287 249.26 226.048 249.327 225.12 249.327C222.068 249.327 219.437 248.796 217.225 247.735C215.058 246.629 213.377 244.727 212.183 242.029C211.033 239.331 210.458 235.594 210.458 230.818V156.848Z" fill="black"/>
<path d="M241.217 147.853H280.629C288.333 147.853 295.027 149 300.713 151.292C306.399 153.585 310.778 156.978 313.851 161.472C316.969 165.966 318.528 171.514 318.528 178.117C318.528 183.849 317.634 188.641 315.845 192.493C314.057 196.345 311.558 199.532 308.348 202.054C305.184 204.53 301.493 206.57 297.274 208.175L289.364 212.646H256.28L256.143 194.006H280.629C283.701 194.006 286.246 193.456 288.264 192.355C290.281 191.255 291.795 189.696 292.803 187.678C293.858 185.615 294.385 183.161 294.385 180.318C294.385 177.43 293.858 174.953 292.803 172.89C291.749 170.827 290.19 169.245 288.126 168.144C286.109 167.044 283.61 166.493 280.629 166.493H265.359V248H241.217V147.853ZM296.036 248L273.888 203.704L299.475 203.567L321.898 246.968V248H296.036ZM363.825 249.376C357.772 249.376 352.361 248.436 347.592 246.556C342.824 244.63 338.788 241.993 335.487 238.646C332.231 235.298 329.732 231.446 327.99 227.09C326.293 222.734 325.445 218.126 325.445 213.265V210.651C325.445 205.195 326.201 200.151 327.714 195.519C329.228 190.842 331.475 186.761 334.455 183.276C337.436 179.791 341.173 177.086 345.667 175.16C350.16 173.188 355.388 172.202 361.349 172.202C366.622 172.202 371.345 173.05 375.518 174.747C379.691 176.444 383.222 178.874 386.11 182.038C389.045 185.202 391.269 189.031 392.782 193.525C394.341 198.018 395.121 203.062 395.121 208.657V218.08H334.318V203.567H372.492V201.778C372.537 199.302 372.102 197.193 371.185 195.451C370.313 193.708 369.03 192.378 367.333 191.461C365.636 190.544 363.573 190.086 361.143 190.086C358.621 190.086 356.534 190.636 354.883 191.736C353.278 192.837 352.017 194.35 351.1 196.276C350.229 198.156 349.61 200.334 349.243 202.81C348.876 205.286 348.693 207.9 348.693 210.651V213.265C348.693 216.016 349.06 218.515 349.794 220.762C350.573 223.009 351.674 224.935 353.095 226.54C354.562 228.099 356.305 229.314 358.322 230.185C360.386 231.057 362.725 231.492 365.338 231.492C368.502 231.492 371.62 230.896 374.693 229.704C377.765 228.512 380.402 226.54 382.603 223.789L393.126 236.307C391.613 238.462 389.458 240.549 386.661 242.566C383.909 244.584 380.608 246.235 376.756 247.519C372.904 248.757 368.594 249.376 363.825 249.376ZM443.1 276.613V189.191L446.333 173.578H466.418V276.613H443.1ZM397.429 211.477V210.032C397.429 204.392 398.048 199.256 399.286 194.625C400.524 189.948 402.359 185.959 404.789 182.657C407.219 179.31 410.223 176.742 413.799 174.953C417.422 173.119 421.595 172.202 426.318 172.202C430.766 172.202 434.571 173.165 437.735 175.091C440.945 177.017 443.628 179.722 445.783 183.207C447.938 186.646 449.681 190.682 451.01 195.313C452.386 199.944 453.464 204.942 454.243 210.307V212.027C453.464 217.071 452.386 221.84 451.01 226.334C449.681 230.827 447.938 234.817 445.783 238.302C443.628 241.741 440.945 244.446 437.735 246.418C434.526 248.39 430.674 249.376 426.18 249.376C421.503 249.376 417.376 248.436 413.799 246.556C410.223 244.63 407.219 241.97 404.789 238.577C402.359 235.138 400.524 231.125 399.286 226.54C398.048 221.909 397.429 216.888 397.429 211.477ZM420.609 210.032V211.477C420.609 214.274 420.792 216.888 421.159 219.318C421.526 221.702 422.145 223.812 423.016 225.646C423.933 227.48 425.125 228.924 426.593 229.979C428.06 230.988 429.894 231.492 432.095 231.492C435.443 231.492 438.079 230.759 440.005 229.291C441.931 227.824 443.284 225.783 444.063 223.17C444.843 220.51 445.164 217.415 445.026 213.884V208.45C445.072 205.424 444.889 202.764 444.476 200.472C444.063 198.179 443.353 196.276 442.344 194.763C441.381 193.204 440.074 192.034 438.423 191.255C436.773 190.475 434.709 190.086 432.233 190.086C430.078 190.086 428.244 190.59 426.73 191.599C425.263 192.562 424.071 193.937 423.154 195.726C422.282 197.514 421.64 199.623 421.228 202.054C420.815 204.484 420.609 207.143 420.609 210.032Z" fill="#5496D3"/>
<path d="M79.9213 324.239C79.9213 321.187 79.3905 318.467 78.3291 316.079C77.2676 313.691 75.5649 311.546 73.2209 309.644C70.8768 307.742 67.803 305.995 63.9995 304.403C60.2402 302.811 55.6185 301.263 50.1343 299.759C45.2251 298.432 40.8024 297.017 36.8662 295.513C32.93 293.965 29.5687 292.196 26.7824 290.206C24.0403 288.216 21.9395 285.85 20.4801 283.108C19.0206 280.321 18.2908 276.982 18.2908 273.09C18.2908 269.419 19.0869 266.125 20.6791 263.206C22.3155 260.287 24.5711 257.81 27.4458 255.775C30.3648 253.741 33.7703 252.193 37.6623 251.132C41.5543 250.026 45.778 249.473 50.3333 249.473C56.6136 249.473 62.1641 250.667 66.9848 253.055C71.8056 255.444 75.587 258.783 78.3291 263.073C81.1154 267.319 82.5086 272.294 82.5086 277.999H78.9262C78.9262 273.223 77.732 268.955 75.3438 265.196C72.9555 261.436 69.6164 258.473 65.3263 256.306C61.0805 254.139 56.0829 253.055 50.3333 253.055C44.2742 253.055 39.1218 253.984 34.876 255.842C30.6302 257.699 27.4016 260.154 25.1902 263.206C22.9789 266.213 21.8732 269.464 21.8732 272.958C21.8732 275.523 22.3155 277.911 23.2 280.122C24.1288 282.334 25.6767 284.39 27.8439 286.292C30.011 288.15 32.9963 289.919 36.7999 291.599C40.6034 293.236 45.3799 294.806 51.1294 296.31C55.906 297.548 60.2623 298.941 64.1985 300.489C68.179 302.037 71.6066 303.872 74.4813 305.995C77.4003 308.118 79.6338 310.661 81.1817 313.624C82.7739 316.543 83.57 320.037 83.57 324.106C83.57 328.042 82.7076 331.536 80.9827 334.588C79.3021 337.64 76.9581 340.227 73.9506 342.35C70.9432 344.429 67.4492 346.021 63.4688 347.126C59.5326 348.188 55.3089 348.719 50.7977 348.719C46.6846 348.719 42.5273 348.232 38.3257 347.259C34.1241 346.286 30.2764 344.716 26.7824 342.549C23.2885 340.338 20.4801 337.396 18.3572 333.726C16.2343 330.055 15.1728 325.522 15.1728 320.126H18.7552C18.7552 324.947 19.7503 328.971 21.7405 332.2C23.7307 335.428 26.318 337.994 29.5024 339.895C32.731 341.753 36.2028 343.102 39.9179 343.942C43.6772 344.738 47.3038 345.136 50.7977 345.136C56.4588 345.136 61.4786 344.252 65.8571 342.483C70.2355 340.714 73.6631 338.259 76.1398 335.119C78.6608 331.979 79.9213 328.352 79.9213 324.239ZM91.1036 312.895V310.108C91.1036 304.845 91.8555 300.025 93.3592 295.646C94.9072 291.268 97.0522 287.486 99.7943 284.302C102.581 281.118 105.898 278.663 109.745 276.938C113.593 275.169 117.839 274.284 122.483 274.284C127.171 274.284 131.439 275.169 135.287 276.938C139.134 278.663 142.451 281.118 145.238 284.302C148.024 287.486 150.169 291.268 151.673 295.646C153.176 300.025 153.928 304.845 153.928 310.108V312.895C153.928 318.158 153.176 322.978 151.673 327.357C150.169 331.735 148.024 335.517 145.238 338.701C142.496 341.886 139.201 344.362 135.353 346.131C131.505 347.856 127.259 348.719 122.615 348.719C117.927 348.719 113.659 347.856 109.812 346.131C105.964 344.362 102.647 341.886 99.8606 338.701C97.0743 335.517 94.9072 331.735 93.3592 327.357C91.8555 322.978 91.1036 318.158 91.1036 312.895ZM94.686 310.108V312.895C94.686 317.185 95.3052 321.276 96.5436 325.168C97.8262 329.015 99.6616 332.443 102.05 335.45C104.438 338.458 107.357 340.824 110.807 342.549C114.257 344.274 118.193 345.136 122.615 345.136C126.994 345.136 130.886 344.274 134.291 342.549C137.741 340.824 140.66 338.458 143.048 335.45C145.437 332.443 147.25 329.015 148.488 325.168C149.727 321.276 150.346 317.185 150.346 312.895V310.108C150.346 305.907 149.727 301.882 148.488 298.034C147.25 294.187 145.415 290.759 142.982 287.752C140.594 284.7 137.675 282.29 134.225 280.52C130.775 278.751 126.861 277.867 122.483 277.867C118.104 277.867 114.19 278.751 110.74 280.52C107.335 282.29 104.416 284.7 101.984 287.752C99.5952 290.759 97.7819 294.187 96.5436 298.034C95.3052 301.882 94.686 305.907 94.686 310.108ZM176.322 347.392H172.74V265.395C172.74 260.795 173.492 256.925 174.995 253.785C176.499 250.601 178.644 248.19 181.43 246.554C184.261 244.918 187.622 244.099 191.514 244.099C192.885 244.099 194.3 244.188 195.76 244.365C197.219 244.497 198.635 244.785 200.006 245.227L199.475 248.677C198.237 248.323 197.065 248.08 195.959 247.947C194.853 247.77 193.394 247.682 191.581 247.682C188.44 247.682 185.72 248.389 183.421 249.805C181.165 251.176 179.418 253.188 178.18 255.842C176.941 258.451 176.322 261.635 176.322 265.395V347.392ZM195.296 275.611V279.26H160.268V275.611H195.296ZM230.427 275.611V279.26H197.19V275.611H230.427ZM210.458 256.24H214.107V330.21C214.107 334.411 214.594 337.595 215.567 339.763C216.584 341.886 217.911 343.323 219.547 344.075C221.228 344.782 223.019 345.136 224.921 345.136C226.292 345.136 227.508 345.092 228.569 345.004C229.631 344.871 230.781 344.716 232.019 344.539L232.616 347.923C231.643 348.232 230.383 348.431 228.835 348.52C227.287 348.652 226.048 348.719 225.12 348.719C222.068 348.719 219.437 348.188 217.225 347.126C215.058 346.021 213.377 344.119 212.183 341.421C211.033 338.723 210.458 334.986 210.458 330.21V256.24Z" fill="black"/>
<path d="M241.217 247.245H280.629C288.333 247.245 295.027 248.392 300.713 250.684C306.399 252.977 310.778 256.37 313.851 260.864C316.969 265.358 318.528 270.906 318.528 277.509C318.528 283.241 317.634 288.033 315.845 291.885C314.057 295.736 311.558 298.923 308.348 301.445C305.184 303.922 301.493 305.962 297.274 307.567L289.364 312.038H256.28L256.143 293.398H280.629C283.701 293.398 286.246 292.848 288.264 291.747C290.281 290.647 291.795 289.088 292.803 287.07C293.858 285.006 294.385 282.553 294.385 279.71C294.385 276.821 293.858 274.345 292.803 272.282C291.749 270.218 290.19 268.636 288.126 267.536C286.109 266.435 283.61 265.885 280.629 265.885H265.359V347.392H241.217V247.245ZM296.036 347.392L273.888 303.096L299.475 302.959L321.898 346.36V347.392H296.036ZM363.825 348.767C357.772 348.767 352.361 347.827 347.592 345.947C342.824 344.021 338.788 341.385 335.487 338.037C332.231 334.69 329.732 330.838 327.99 326.482C326.293 322.126 325.445 317.517 325.445 312.657V310.043C325.445 304.586 326.201 299.542 327.714 294.911C329.228 290.234 331.475 286.153 334.455 282.668C337.436 279.183 341.173 276.478 345.667 274.552C350.16 272.58 355.388 271.594 361.349 271.594C366.622 271.594 371.345 272.442 375.518 274.139C379.691 275.836 383.222 278.266 386.11 281.43C389.045 284.594 391.269 288.423 392.782 292.916C394.341 297.41 395.121 302.454 395.121 308.048V317.472H334.318V302.959H372.492V301.17C372.537 298.694 372.102 296.585 371.185 294.842C370.313 293.1 369.03 291.77 367.333 290.853C365.636 289.936 363.573 289.477 361.143 289.477C358.621 289.477 356.534 290.028 354.883 291.128C353.278 292.229 352.017 293.742 351.1 295.668C350.229 297.548 349.61 299.726 349.243 302.202C348.876 304.678 348.693 307.292 348.693 310.043V312.657C348.693 315.408 349.06 317.907 349.794 320.154C350.573 322.401 351.674 324.327 353.095 325.932C354.562 327.491 356.305 328.706 358.322 329.577C360.386 330.448 362.725 330.884 365.338 330.884C368.502 330.884 371.62 330.288 374.693 329.096C377.765 327.904 380.402 325.932 382.603 323.181L393.126 335.699C391.613 337.854 389.458 339.94 386.661 341.958C383.909 343.976 380.608 345.626 376.756 346.91C372.904 348.148 368.594 348.767 363.825 348.767ZM443.1 376.005V288.583L446.333 272.97H466.418V376.005H443.1ZM397.429 310.869V309.424C397.429 303.784 398.048 298.648 399.286 294.017C400.524 289.34 402.359 285.35 404.789 282.049C407.219 278.701 410.223 276.134 413.799 274.345C417.422 272.511 421.595 271.594 426.318 271.594C430.766 271.594 434.571 272.557 437.735 274.483C440.945 276.409 443.628 279.114 445.783 282.599C447.938 286.038 449.681 290.073 451.01 294.705C452.386 299.336 453.464 304.334 454.243 309.699V311.419C453.464 316.463 452.386 321.232 451.01 325.725C449.681 330.219 447.938 334.209 445.783 337.694C443.628 341.133 440.945 343.838 437.735 345.81C434.526 347.782 430.674 348.767 426.18 348.767C421.503 348.767 417.376 347.827 413.799 345.947C410.223 344.021 407.219 341.362 404.789 337.969C402.359 334.53 400.524 330.517 399.286 325.932C398.048 321.3 397.429 316.279 397.429 310.869ZM420.609 309.424V310.869C420.609 313.666 420.792 316.279 421.159 318.71C421.526 321.094 422.145 323.203 423.016 325.038C423.933 326.872 425.125 328.316 426.593 329.371C428.06 330.38 429.894 330.884 432.095 330.884C435.443 330.884 438.079 330.15 440.005 328.683C441.931 327.216 443.284 325.175 444.063 322.561C444.843 319.902 445.164 316.807 445.026 313.276V307.842C445.072 304.816 444.889 302.156 444.476 299.863C444.063 297.571 443.353 295.668 442.344 294.154C441.381 292.595 440.074 291.426 438.423 290.647C436.773 289.867 434.709 289.477 432.233 289.477C430.078 289.477 428.244 289.982 426.73 290.991C425.263 291.953 424.071 293.329 423.154 295.117C422.282 296.906 421.64 299.015 421.228 301.445C420.815 303.876 420.609 306.535 420.609 309.424Z" fill="#0B5394"/>
<path d="M241.217 247.245H280.629C288.333 247.245 295.027 248.392 300.713 250.684C306.399 252.977 310.778 256.37 313.851 260.864C316.969 265.358 318.528 270.906 318.528 277.509C318.528 283.241 317.634 288.033 315.845 291.885C314.057 295.736 311.558 298.923 308.348 301.445C305.184 303.922 301.493 305.962 297.274 307.567L289.364 312.038H256.28L256.143 293.398H280.629C283.701 293.398 286.246 292.848 288.264 291.747C290.281 290.647 291.795 289.088 292.803 287.07C293.858 285.006 294.385 282.553 294.385 279.71C294.385 276.821 293.858 274.345 292.803 272.282C291.749 270.218 290.19 268.636 288.126 267.536C286.109 266.435 283.61 265.885 280.629 265.885H265.359V347.392H241.217V247.245ZM296.036 347.392L273.888 303.096L299.475 302.959L321.898 346.36V347.392H296.036ZM363.825 348.767C357.772 348.767 352.361 347.827 347.592 345.947C342.824 344.021 338.788 341.385 335.487 338.037C332.231 334.69 329.732 330.838 327.99 326.482C326.293 322.126 325.445 317.517 325.445 312.657V310.043C325.445 304.586 326.201 299.542 327.714 294.911C329.228 290.234 331.475 286.153 334.455 282.668C337.436 279.183 341.173 276.478 345.667 274.552C350.16 272.58 355.388 271.594 361.349 271.594C366.622 271.594 371.345 272.442 375.518 274.139C379.691 275.836 383.222 278.266 386.11 281.43C389.045 284.594 391.269 288.423 392.782 292.916C394.341 297.41 395.121 302.454 395.121 308.048V317.472H334.318V302.959H372.492V301.17C372.537 298.694 372.102 296.585 371.185 294.842C370.313 293.1 369.03 291.77 367.333 290.853C365.636 289.936 363.573 289.477 361.143 289.477C358.621 289.477 356.534 290.028 354.883 291.128C353.278 292.229 352.017 293.742 351.1 295.668C350.229 297.548 349.61 299.726 349.243 302.202C348.876 304.678 348.693 307.292 348.693 310.043V312.657C348.693 315.408 349.06 317.907 349.794 320.154C350.573 322.401 351.674 324.327 353.095 325.932C354.562 327.491 356.305 328.706 358.322 329.577C360.386 330.448 362.725 330.884 365.338 330.884C368.502 330.884 371.62 330.288 374.693 329.096C377.765 327.904 380.402 325.932 382.603 323.181L393.126 335.699C391.613 337.854 389.458 339.94 386.661 341.958C383.909 343.976 380.608 345.626 376.756 346.91C372.904 348.148 368.594 348.767 363.825 348.767ZM443.1 376.005V288.583L446.333 272.97H466.418V376.005H443.1ZM397.429 310.869V309.424C397.429 303.784 398.048 298.648 399.286 294.017C400.524 289.34 402.359 285.35 404.789 282.049C407.219 278.701 410.223 276.134 413.799 274.345C417.422 272.511 421.595 271.594 426.318 271.594C430.766 271.594 434.571 272.557 437.735 274.483C440.945 276.409 443.628 279.114 445.783 282.599C447.938 286.038 449.681 290.073 451.01 294.705C452.386 299.336 453.464 304.334 454.243 309.699V311.419C453.464 316.463 452.386 321.232 451.01 325.725C449.681 330.219 447.938 334.209 445.783 337.694C443.628 341.133 440.945 343.838 437.735 345.81C434.526 347.782 430.674 348.767 426.18 348.767C421.503 348.767 417.376 347.827 413.799 345.947C410.223 344.021 407.219 341.362 404.789 337.969C402.359 334.53 400.524 330.517 399.286 325.932C398.048 321.3 397.429 316.279 397.429 310.869ZM420.609 309.424V310.869C420.609 313.666 420.792 316.279 421.159 318.71C421.526 321.094 422.145 323.203 423.016 325.038C423.933 326.872 425.125 328.316 426.593 329.371C428.06 330.38 429.894 330.884 432.095 330.884C435.443 330.884 438.079 330.15 440.005 328.683C441.931 327.216 443.284 325.175 444.063 322.561C444.843 319.902 445.164 316.807 445.026 313.276V307.842C445.072 304.816 444.889 302.156 444.476 299.863C444.063 297.571 443.353 295.668 442.344 294.154C441.381 292.595 440.074 291.426 438.423 290.647C436.773 289.867 434.709 289.477 432.233 289.477C430.078 289.477 428.244 289.982 426.73 290.991C425.263 291.953 424.071 293.329 423.154 295.117C422.282 296.906 421.64 299.015 421.228 301.445C420.815 303.876 420.609 306.535 420.609 309.424Z" fill="#27639A" fill-opacity="0.2"/>
</svg>
